<svg id="Main" xmlns="http://www.w3.org/2000/svg" viewBox="0 0 1917.77 318.62"><defs><style>.cls-1{fill:#0b657a;}.cls-2{fill:#fff;}</style></defs><title>Logo</title><polygon class="cls-1" points="1485.61 0.16 1449.96 56.28 322.8 55.79 273.84 0.92 1485.61 0.16"/><path class="cls-2" d="M389.06,343.87q0,40.86-28.36,86.41-37.51,60.07-109,93.11-65.87,30.37-141.56,30.37H36.51l80.83-229.08h80.6L129.39,518q44,0,87.19-27t63.08-66.76q17.86-35.05,17.86-58.5,0-38.4-21.43-55.15-19.21-14.74-58.95-14.74H1.23L35.62,239.6H251.75q56,0,93.33,23.67Q389.06,291.18,389.06,343.87Z" transform="translate(-1.23 -239.6)"/><path class="cls-2" d="M685.35,518q-10.72,35.73-54.7,35.72H546q-36.17,0-36.17-23.22Q485.52,558.22,450,558.22q-26.12,0-42.42-16.08t-16.3-42q0-46.66,35.72-73.68,32.37-24.56,80.16-24.56H634.67l-42,116.1Zm-144-80.38H492l-15.63,52A34.23,34.23,0,0,0,475,498.6Q475,518,513,518Z" transform="translate(-1.23 -239.6)"/><path class="cls-2" d="M857.72,521.6q-5.58,17.69-25.68,26.12a75.7,75.7,0,0,1-30.14,6h-86q-33,0-33-20.3a34.66,34.66,0,0,1,2.46-11.86l82.84-210.2h79L763.95,521.6Z" transform="translate(-1.23 -239.6)"/><path class="cls-2" d="M1136.6,518q-4.69,17.2-21.43,27-15,8.71-34.16,8.71H956.64q-108.51,0-108.51-65.42,0-42,37.06-65.87,31.93-20.54,75.91-20.54h32.38q28.35,0,49.79,8.71,28.58,11.61,29.92,35.28,1.12,23.89-23,39.74h-73.9l24.11-48H953.29L935,491.46a27.09,27.09,0,0,0-1.56,8.48q0,18.09,29,18.09Z" transform="translate(-1.23 -239.6)"/><path class="cls-2" d="M1441.15,518q-5.81,19.65-25.68,29a69.22,69.22,0,0,1-30.14,6.7h-89.09q-30.59,0-30.59-20.1a48.27,48.27,0,0,1,3.13-15.63l17-48-76.81,65q-27,18.76-44.43,18.76h-41.08l53.36-151.83h80.6l-25.23,71.45,68.1-55.82q27.68-22.55,60.06-21.66,21.88.89,21.88,23.22a57.08,57.08,0,0,1-3.57,18.53L1349.83,518Z" transform="translate(-1.23 -239.6)"/><path class="cls-1" d="M1919,239.6l-158.08,285.8q-15.85,28.36-48.45,28.36h-27.91V355.26l-109.85,171q-17.64,27.46-52,27.46H1491l23.44-257.89H1410.6L1445,239.6h98.69q18.09,0,31,8.26,17.42,11.39,17.42,35.5a63.21,63.21,0,0,1-.45,7.37L1575.6,442.11l106.5-169q11.39-18.09,20.32-24.56,12.5-8.93,34.16-8.93h21.88v198l107.17-198Z" transform="translate(-1.23 -239.6)"/></svg>